<?xml version="1.0" encoding="UTF-8"?>
<svg width="36px" height="31px" viewBox="0 0 36 31" version="1.1" xmlns="http://www.w3.org/2000/svg" xmlns:xlink="http://www.w3.org/1999/xlink">
    <!-- Generator: sketchtool 40 (33762) - http://www.bohemiancoding.com/sketch -->
    <title>58F64DF0-97EC-499A-82A7-FECA32C52DAE</title>
    <desc>Created with sketchtool.</desc>
    <defs></defs>
    <g id="Page-1" stroke="none" stroke-width="1" fill="none" fill-rule="evenodd">
        <g id="#8-CVD渠道管理-设置" transform="translate(-438.000000, -144.000000)">
            <g id="个人信息" transform="translate(432.000000, 144.000000)">
                <g id="Group" transform="translate(6.000000, 0.000000)">
                    <path d="M0,2.24350274 C0,1.13428956 0.898322131,0.216790756 1.9904401,0.196474235 C1.9904401,0.196474235 11.6378423,-0.0194733238 12.543677,0.235094608 C13.4495116,0.489662539 16.2179081,2.57859408 16.2179081,2.57859408 L33.9943234,2.57859408 C35.102028,2.57859408 36,3.46431288 36,4.58275639 L36,28.1332659 C36,29.2401342 35.1101074,30.1374282 34.0002927,30.1374282 L1.99970728,30.1374282 C0.895299444,30.1374282 0,29.2425108 0,28.1290201 L0,2.24350274 Z" id="Rectangle-2" fill-opacity="0.2" fill="#42BBC1"></path>
                    <path d="M0,2.23959128 C0,1.13255052 0.898322131,0.216809881 1.9904401,0.196490105 C1.9904401,0.196490105 11.6378423,-0.0194920542 12.543677,0.235116665 C13.4495116,0.489725385 16.2179081,2.57899162 16.2179081,2.57899162 L33.9943234,2.57899162 C35.102028,2.57899162 36,3.48419921 36,4.580122 L36,7.64224138 L0,7.64224138 L0,2.23959128 Z" id="Rectangle-2" fill="#42BCC1"></path>
                    <rect id="Rectangle-4" fill="#7793C6" x="22.3448276" y="11.5215517" width="9" height="2" rx="1"></rect>
                    <rect id="Rectangle-4-Copy" fill="#7793C6" x="22.3448276" y="15.2456897" width="9" height="2" rx="1"></rect>
                    <rect id="Rectangle-4-Copy-2" fill="#7793C6" x="22.3448276" y="18.9698276" width="9" height="2" rx="1"></rect>
                    <rect id="Rectangle-4-Copy-3" fill="#7793C6" x="22.3448276" y="22.6939655" width="9" height="2" rx="1"></rect>
                    <path d="M11.4482759,17.4482759 C10.4137879,17.4482759 9.53448638,17.0862105 8.81034483,16.362069 C8.08620328,15.6379274 7.72413793,14.7586259 7.72413793,13.7241379 C7.72413793,12.68965 8.08620328,11.8103484 8.81034483,11.0862069 C9.53448638,10.3620653 10.4137879,10 11.4482759,10 C12.4827638,10 13.3620653,10.3620653 14.0862069,11.0862069 C14.8103484,11.8103484 15.1724138,12.68965 15.1724138,13.7241379 C15.1724138,14.7586259 14.8103484,15.6379274 14.0862069,16.362069 C13.3620653,17.0862105 12.4827638,17.4482759 11.4482759,17.4482759 L11.4482759,17.4482759 Z M11.4482759,19.3103448 C13.0000078,19.3103448 14.6293018,19.6530138 16.3362069,20.3383621 C18.043112,21.0237103 18.8965517,21.9224082 18.8965517,23.0344828 L18.8965517,24.8965517 L4,24.8965517 L4,23.0344828 C4,21.9224082 4.85343974,21.0237103 6.56034483,20.3383621 C8.26724991,19.6530138 9.89654397,19.3103448 11.4482759,19.3103448 L11.4482759,19.3103448 Z" id="ion-android-person---Ionicons" fill-opacity="0.5" fill="#42BBC1" opacity="0.8"></path>
                </g>
            </g>
        </g>
    </g>
</svg>