<?xml version="1.0" encoding="UTF-8" standalone="no"?>
<svg width="187px" height="30px" viewBox="0 0 187 30" version="1.1" xmlns="http://www.w3.org/2000/svg" xmlns:xlink="http://www.w3.org/1999/xlink">
    <!-- Generator: sketchtool 39.1 (31720) - http://www.bohemiancoding.com/sketch -->
    <title>2A2E2AD0-8E5A-4DF0-9319-916F7A3E095A</title>
    <desc>Created with sketchtool.</desc>
    <defs></defs>
    <g id="UI" stroke="none" stroke-width="1" fill="none" fill-rule="evenodd">
        <g id="#1" transform="translate(-52.000000, -16.000000)">
            <g id="Group-2" transform="translate(52.000000, 16.000000)">
                <g id="Logo">
                    <rect id="bounds" x="0" y="0" width="32" height="32"></rect>
                    <path d="M11.6,5 L9.00004048,5 C4.58890267,5 1,8.57798469 1,12.9916525 L1,21.0083475 C1,25.4199239 4.58174013,29 9.00004048,29 L22.9999595,29 C27.4110973,29 31,25.4220153 31,21.0083475 L31,12.9916525 C31,8.5800761 27.4182599,5 22.9999595,5 L20,5 L20,1 L11.6,5 Z M24,19 C25.1045695,19 26,18.1045695 26,17 C26,15.8954305 25.1045695,15 24,15 C22.8954305,15 22,15.8954305 22,17 C22,18.1045695 22.8954305,19 24,19 Z M16,19 C17.1045695,19 18,18.1045695 18,17 C18,15.8954305 17.1045695,15 16,15 C14.8954305,15 14,15.8954305 14,17 C14,18.1045695 14.8954305,19 16,19 Z M8,19 C9.1045695,19 10,18.1045695 10,17 C10,15.8954305 9.1045695,15 8,15 C6.8954305,15 6,15.8954305 6,17 C6,18.1045695 6.8954305,19 8,19 Z" id="Face" stroke="#2196F3" stroke-width="2" stroke-linecap="round" stroke-linejoin="round"></path>
                    <text id="晓多·知晓更多" font-family="PingFangSC-Regular, PingFang SC" font-size="20" font-weight="normal" fill="#424242">
                        <tspan x="48" y="24">晓</tspan>
                        <tspan x="68" y="24" letter-spacing="5">多</tspan>
                        <tspan x="93" y="24" font-family="PingFangSC-Light, PingFang SC" font-weight="300" letter-spacing="5">·</tspan>
                        <tspan x="108" y="24" font-family="PingFangSC-Light, PingFang SC" font-weight="300">知晓更多</tspan>
                    </text>
                </g>
            </g>
        </g>
    </g>
</svg>